<?xml version="1.0" encoding="UTF-8" standalone="no"?><svg xmlns="http://www.w3.org/2000/svg" xmlns:xlink="http://www.w3.org/1999/xlink" contentScriptType="application/ecmascript" contentStyleType="text/css" height="520px" preserveAspectRatio="none" style="width:583px;height:520px;background:#FFFFFF;" version="1.1" viewBox="0 0 583 520" width="583px" zoomAndPan="magnify"><defs><filter height="300%" id="ftqkxdxecpewe" width="300%" x="-1" y="-1"><feGaussianBlur result="blurOut" stdDeviation="2.0"/><feColorMatrix in="blurOut" result="blurOut2" type="matrix" values="0 0 0 0 0 0 0 0 0 0 0 0 0 0 0 0 0 0 .4 0"/><feOffset dx="4.0" dy="4.0" in="blurOut2" result="blurOut3"/><feBlend in="SourceGraphic" in2="blurOut3" mode="normal"/></filter></defs><g><ellipse cx="467.3299" cy="16" fill="#000000" filter="url(#ftqkxdxecpewe)" rx="10" ry="10" style="stroke:none;stroke-width:1.0;"/><rect fill="#FEFECE" filter="url(#ftqkxdxecpewe)" height="34.1328" rx="12.5" ry="12.5" style="stroke:#A80036;stroke-width:1.5;" width="173" x="380.8299" y="67"/><text fill="#000000" font-family="sans-serif" font-size="12" lengthAdjust="spacing" textLength="149" x="390.8299" y="88.6016">Informe o tipo de sangue:</text><rect fill="#FEFECE" filter="url(#ftqkxdxecpewe)" height="34.1328" rx="12.5" ry="12.5" style="stroke:#A80036;stroke-width:1.5;" width="70" x="432.3299" y="142"/><text fill="#000000" font-family="sans-serif" font-size="12" lengthAdjust="spacing" textLength="50" x="442.3299" y="163.6016">leia(tipo)</text><polygon fill="#FEFECE" filter="url(#ftqkxdxecpewe)" points="467.3299,217,479.3299,229,467.3299,241,455.3299,229,467.3299,217" style="stroke:#A80036;stroke-width:1.5;"/><rect fill="#FEFECE" filter="url(#ftqkxdxecpewe)" height="34.1328" rx="12.5" ry="12.5" style="stroke:#A80036;stroke-width:1.5;" width="114" x="455.3299" y="261"/><text fill="#000000" font-family="sans-serif" font-size="12" lengthAdjust="spacing" textLength="94" x="465.3299" y="282.6016">escrever(''Azul'')</text><rect fill="#000000" filter="url(#ftqkxdxecpewe)" height="8" style="stroke:none;stroke-width:1.0;" width="80" x="472.3299" y="426"/><polygon fill="#FEFECE" filter="url(#ftqkxdxecpewe)" points="423.3299,315,435.3299,327,423.3299,339,411.3299,327,423.3299,315" style="stroke:#A80036;stroke-width:1.5;"/><rect fill="#FEFECE" filter="url(#ftqkxdxecpewe)" height="34.1328" rx="12.5" ry="12.5" style="stroke:#A80036;stroke-width:1.5;" width="144" x="352.3299" y="359"/><text fill="#000000" font-family="sans-serif" font-size="12" lengthAdjust="spacing" textLength="124" x="362.3299" y="380.6016">escrever(''Vermelho'')</text><polygon fill="#FEFECE" filter="url(#ftqkxdxecpewe)" points="88.3299,418,100.3299,430,88.3299,442,76.3299,430,88.3299,418" style="stroke:#A80036;stroke-width:1.5;"/><rect fill="#FEFECE" filter="url(#ftqkxdxecpewe)" height="34.1328" rx="12.5" ry="12.5" style="stroke:#A80036;stroke-width:1.5;" width="141" x="310.8299" y="413"/><text fill="#000000" font-family="sans-serif" font-size="12" lengthAdjust="spacing" textLength="121" x="320.8299" y="434.6016">escrever(''Universal'')</text><rect fill="#FEFECE" filter="url(#ftqkxdxecpewe)" height="34.1328" rx="12.5" ry="12.5" style="stroke:#A80036;stroke-width:1.5;" width="170" x="120.3299" y="413"/><text fill="#000000" font-family="sans-serif" font-size="12" lengthAdjust="spacing" textLength="150" x="130.3299" y="434.6016">escrever(''Tipo Incorreto'')</text><ellipse cx="512.3299" cy="498" filter="url(#ftqkxdxecpewe)" rx="10" ry="10" style="stroke:#000000;stroke-width:1.0;fill:none;"/><ellipse cx="512.8299" cy="498.5" fill="#000000" rx="6" ry="6" style="stroke:none;stroke-width:1.0;"/><!--MD5=[fa67825f8cbb549f1b17d404f2b146d8]
link start to Informe o tipo de sangue: --><path d="M467.3299,26.0336 C467.3299,35.4082 467.3299,49.7285 467.3299,61.7898 " fill="none" id="start-to-Informe o tipo de sangue: " style="stroke:#A80036;stroke-width:1.0;"/><polygon fill="#A80036" points="467.3299,66.7995,471.3299,57.7995,467.3299,61.7995,463.3299,57.7995,467.3299,66.7995" style="stroke:#A80036;stroke-width:1.0;"/><!--MD5=[b6634a7955a1ed8adcbfa01d2c6c2aca]
link Informe o tipo de sangue:  to leia(tipo)--><path d="M467.3299,101.0187 C467.3299,111.5877 467.3299,125.2879 467.3299,136.7171 " fill="none" id="Informe o tipo de sangue: -to-leia(tipo)" style="stroke:#A80036;stroke-width:1.0;"/><polygon fill="#A80036" points="467.3299,141.7891,471.3299,132.7891,467.3299,136.7891,463.3299,132.7891,467.3299,141.7891" style="stroke:#A80036;stroke-width:1.0;"/><!--MD5=[3314b8ad825627f4b95bd40919b71a62]
link leia(tipo) to #7--><path d="M467.3299,176.3034 C467.3299,187.1588 467.3299,201.0963 467.3299,211.9108 " fill="none" id="leia(tipo)-to-#7" style="stroke:#A80036;stroke-width:1.0;"/><polygon fill="#A80036" points="467.3299,216.9417,471.3299,207.9417,467.3299,211.9417,463.3299,207.9417,467.3299,216.9417" style="stroke:#A80036;stroke-width:1.0;"/><text fill="#000000" font-family="sans-serif" font-size="11" lengthAdjust="spacing" textLength="61" x="390.6987" y="206.5663">(tipo == A)</text><!--MD5=[032815761e275e1a16f5b53f9b94bf26]
link #7 to escrever(''Azul'')--><path d="M473.2128,235.4059 C478.2903,240.9347 485.9186,249.241 493.0943,257.0545 " fill="none" id="#7-to-escrever(''Azul'')" style="stroke:#A80036;stroke-width:1.0;"/><polygon fill="#A80036" points="496.5674,260.8364,493.4258,251.502,493.1854,257.1538,487.5336,256.9133,496.5674,260.8364" style="stroke:#A80036;stroke-width:1.0;"/><text fill="#000000" font-family="sans-serif" font-size="11" lengthAdjust="spacing" textLength="22" x="485.6571" y="245.5022">true</text><!--MD5=[57e955abf3538cfd3a6eeaa34b186e78]
link escrever(''Azul'') to REDIRECT_CHECK--><path d="M512.3299,295.1409 C512.3299,327.3422 512.3299,395.8675 512.3299,420.7373 " fill="none" id="escrever(''Azul'')-to-REDIRECT_CHECK" style="stroke:#A80036;stroke-width:1.0;"/><polygon fill="#A80036" points="512.3299,425.8357,516.3299,416.8357,512.3299,420.8357,508.3299,416.8357,512.3299,425.8357" style="stroke:#A80036;stroke-width:1.0;"/><!--MD5=[5b3e8854f235f0f2d567fa9852095921]
link #7 to #14--><path d="M458.0587,231.9608 C446.358,236.2567 426.7456,245.4526 418.3299,261 C409.4631,277.3806 413.8294,299.4779 418.2258,313.4853 " fill="none" id="#7-to-#14" style="stroke:#A80036;stroke-width:1.0;"/><polygon fill="#A80036" points="419.8225,318.2543,420.7583,308.45,418.2351,313.513,413.1721,310.9898,419.8225,318.2543" style="stroke:#A80036;stroke-width:1.0;"/><text fill="#000000" font-family="sans-serif" font-size="11" lengthAdjust="spacing" textLength="25" x="419.3299" y="282.6348">false</text><text fill="#000000" font-family="sans-serif" font-size="11" lengthAdjust="spacing" textLength="59" x="344.7314" y="309.9333">(tipo == B)</text><!--MD5=[713b658009eba891652c71105db68ebe]
link #14 to escrever(''Vermelho'')--><path d="M423.572,338.8615 C423.6639,343.365 423.7718,348.653 423.8769,353.8039 " fill="none" id="#14-to-escrever(''Vermelho'')" style="stroke:#A80036;stroke-width:1.0;"/><polygon fill="#A80036" points="423.9804,358.8751,427.7957,349.7953,423.8783,353.8761,419.7974,349.9587,423.9804,358.8751" style="stroke:#A80036;stroke-width:1.0;"/><text fill="#000000" font-family="sans-serif" font-size="11" lengthAdjust="spacing" textLength="22" x="424.7781" y="346.5977">true</text><!--MD5=[e5e9fa4f6ba2091c697ace1c5b3575da]
link escrever(''Vermelho'') to REDIRECT_CHECK--><path d="M452.1736,393.0859 C468.7102,403.2334 488.7824,415.5504 501.0511,423.079 " fill="none" id="escrever(''Vermelho'')-to-REDIRECT_CHECK" style="stroke:#A80036;stroke-width:1.0;"/><polygon fill="#A80036" points="505.4979,425.8076,499.9191,417.6912,501.2363,423.1925,495.7349,424.5097,505.4979,425.8076" style="stroke:#A80036;stroke-width:1.0;"/><!--MD5=[8ffe6b5069a48d75683f003c89ca82b0]
link #14 to #20--><path d="M411.8754,327.5988 C368.7468,329.9847 216.3634,339.638 172.3299,359 C140.6944,372.9105 111.8058,402.6386 97.5918,418.8667 " fill="none" id="#14-to-#20" style="stroke:#A80036;stroke-width:1.0;"/><polygon fill="#A80036" points="93.9818,423.0615,102.8844,418.8491,97.2433,419.2717,96.8207,413.6307,93.9818,423.0615" style="stroke:#A80036;stroke-width:1.0;"/><text fill="#000000" font-family="sans-serif" font-size="11" lengthAdjust="spacing" textLength="25" x="173.3299" y="380.6348">false</text><text fill="#000000" font-family="sans-serif" font-size="11" lengthAdjust="spacing" textLength="62" x="6" y="408.9238">(tipo == O)</text><!--MD5=[ea39be74c8910b1317d92241519f0800]
link #20 to escrever(''Universal'')--><path d="M94.8943,424.0765 C99.0853,420.5177 104.7604,416.0946 110.3299,413 C149.2982,391.3476 160.4562,385.903 204.3299,378 C255.4615,368.7897 312.8629,392.131 348.0576,410.4689 " fill="none" id="#20-to-escrever(''Universal'')" style="stroke:#A80036;stroke-width:1.0;"/><polygon fill="#A80036" points="352.6612,412.9052,346.5776,405.1599,348.2419,410.5664,342.8355,412.2307,352.6612,412.9052" style="stroke:#A80036;stroke-width:1.0;"/><text fill="#000000" font-family="sans-serif" font-size="11" lengthAdjust="spacing" textLength="22" x="205.3299" y="380.6348">true</text><!--MD5=[8d753c59177803250f7fb30581b2e501]
link escrever(''Universal'') to REDIRECT_CHECK--><path d="M451.9471,430 C457.0183,430 462.0895,430 467.1607,430 " fill="none" id="escrever(''Universal'')-to-REDIRECT_CHECK" style="stroke:#A80036;stroke-width:1.0;"/><polygon fill="#A80036" points="472.2319,430,463.2319,426,467.2319,430,463.2319,434,472.2319,430" style="stroke:#A80036;stroke-width:1.0;"/><!--MD5=[50b6e118ed1340597aa83f41ae8f5b32]
link #20 to escrever(''Tipo Incorreto'')--><path d="M100.6697,430 C105.4735,430 110.2772,430 115.0809,430 " fill="none" id="#20-to-escrever(''Tipo Incorreto'')" style="stroke:#A80036;stroke-width:1.0;"/><polygon fill="#A80036" points="120.2935,430,111.2935,426,115.2935,430,111.2935,434,120.2935,430" style="stroke:#A80036;stroke-width:1.0;"/><!--MD5=[f6c2cc3db106a1659e1acdb2a39684eb]
link escrever(''Tipo Incorreto'') to REDIRECT_CHECK--><path d="M230.298,412.8234 C250.7688,399.8425 281.0428,383.0896 310.3299,376 C371.2374,361.2559 392.7313,353.7892 451.3299,376 C475.5946,385.1971 496.4105,408.9472 506.258,421.6669 " fill="none" id="escrever(''Tipo Incorreto'')-to-REDIRECT_CHECK" style="stroke:#A80036;stroke-width:1.0;"/><polygon fill="#A80036" points="509.3759,425.8066,507.1565,416.2111,506.3678,421.8127,500.7662,421.024,509.3759,425.8066" style="stroke:#A80036;stroke-width:1.0;"/><!--MD5=[bbc1d3ccf7066af725fa50a76314691b]
link REDIRECT_CHECK to end--><path d="M512.3299,434.0501 C512.3299,443.4519 512.3299,467.155 512.3299,482.9116 " fill="none" id="REDIRECT_CHECK-to-end" style="stroke:#A80036;stroke-width:1.0;"/><polygon fill="#A80036" points="512.3299,487.9183,516.3299,478.9183,512.3299,482.9183,508.3299,478.9183,512.3299,487.9183" style="stroke:#A80036;stroke-width:1.0;"/><!--MD5=[3946f1491f1b8f4093bff86f1bbf58d6]
@startuml ProvaB1q3
  (*) - -> "Informe o tipo de sangue: " 
  - -> leia(tipo)
  if "(tipo == A)" then
    ->[true] "escrever(''Azul'')"
    -> ===REDIRECT_CHECK===  
  else
    - ->[false] if "(tipo == B)" then
      ->[true] "escrever(''Vermelho'')"
      -> ===REDIRECT_CHECK===  
    else
      - ->[false] if "(tipo == O)" then
        ->[true] "escrever(''Universal'')"
        -> ===REDIRECT_CHECK===  
      else
        -> "escrever(''Tipo Incorreto'')"
        -> ===REDIRECT_CHECK===  
      endif
    endif
  endif
  - ->(*)
@enduml

PlantUML version 1.2022.0(Tue Jan 11 13:16:42 BRT 2022)
(GPL source distribution)
Java Runtime: OpenJDK Runtime Environment
JVM: OpenJDK 64-Bit Server VM
Default Encoding: UTF-8
Language: en
Country: BR
--></g></svg>