<?xml version="1.0" encoding="UTF-8" standalone="no"?><svg xmlns="http://www.w3.org/2000/svg" xmlns:xlink="http://www.w3.org/1999/xlink" contentScriptType="application/ecmascript" contentStyleType="text/css" height="520px" preserveAspectRatio="none" style="width:621px;height:520px;background:#FFFFFF;" version="1.1" viewBox="0 0 621 520" width="621px" zoomAndPan="magnify"><defs><filter height="300%" id="fowb04cecjcmq" width="300%" x="-1" y="-1"><feGaussianBlur result="blurOut" stdDeviation="2.0"/><feColorMatrix in="blurOut" result="blurOut2" type="matrix" values="0 0 0 0 0 0 0 0 0 0 0 0 0 0 0 0 0 0 .4 0"/><feOffset dx="4.0" dy="4.0" in="blurOut2" result="blurOut3"/><feBlend in="SourceGraphic" in2="blurOut3" mode="normal"/></filter></defs><g><ellipse cx="483.5335" cy="16" fill="#000000" filter="url(#fowb04cecjcmq)" rx="10" ry="10" style="stroke:none;stroke-width:1.0;"/><rect fill="#FEFECE" filter="url(#fowb04cecjcmq)" height="34.1328" rx="12.5" ry="12.5" style="stroke:#A80036;stroke-width:1.5;" width="173" x="397.0335" y="67"/><text fill="#000000" font-family="sans-serif" font-size="12" lengthAdjust="spacing" textLength="149" x="407.0335" y="88.6016">Informe o tipo de sangue:</text><rect fill="#FEFECE" filter="url(#fowb04cecjcmq)" height="34.1328" rx="12.5" ry="12.5" style="stroke:#A80036;stroke-width:1.5;" width="70" x="448.5335" y="142"/><text fill="#000000" font-family="sans-serif" font-size="12" lengthAdjust="spacing" textLength="50" x="458.5335" y="163.6016">leia(tipo)</text><polygon fill="#FEFECE" filter="url(#fowb04cecjcmq)" points="483.5335,217,495.5335,229,483.5335,241,471.5335,229,483.5335,217" style="stroke:#A80036;stroke-width:1.5;"/><rect fill="#FEFECE" filter="url(#fowb04cecjcmq)" height="34.1328" rx="12.5" ry="12.5" style="stroke:#A80036;stroke-width:1.5;" width="144" x="463.5335" y="261"/><text fill="#000000" font-family="sans-serif" font-size="12" lengthAdjust="spacing" textLength="124" x="473.5335" y="282.6016">escrever(''Vermelho'')</text><rect fill="#000000" filter="url(#fowb04cecjcmq)" height="8" style="stroke:none;stroke-width:1.0;" width="80" x="495.5335" y="426"/><polygon fill="#FEFECE" filter="url(#fowb04cecjcmq)" points="431.5335,315,443.5335,327,431.5335,339,419.5335,327,431.5335,315" style="stroke:#A80036;stroke-width:1.5;"/><rect fill="#FEFECE" filter="url(#fowb04cecjcmq)" height="34.1328" rx="12.5" ry="12.5" style="stroke:#A80036;stroke-width:1.5;" width="114" x="390.5335" y="359"/><text fill="#000000" font-family="sans-serif" font-size="12" lengthAdjust="spacing" textLength="94" x="400.5335" y="380.6016">escrever(''Azul'')</text><polygon fill="#FEFECE" filter="url(#fowb04cecjcmq)" points="88.5335,418,100.5335,430,88.5335,442,76.5335,430,88.5335,418" style="stroke:#A80036;stroke-width:1.5;"/><rect fill="#FEFECE" filter="url(#fowb04cecjcmq)" height="34.1328" rx="12.5" ry="12.5" style="stroke:#A80036;stroke-width:1.5;" width="141" x="334.0335" y="413"/><text fill="#000000" font-family="sans-serif" font-size="12" lengthAdjust="spacing" textLength="121" x="344.0335" y="434.6016">escrever(''Universal'')</text><rect fill="#FEFECE" filter="url(#fowb04cecjcmq)" height="34.1328" rx="12.5" ry="12.5" style="stroke:#A80036;stroke-width:1.5;" width="193" x="121.0335" y="413"/><text fill="#000000" font-family="sans-serif" font-size="12" lengthAdjust="spacing" textLength="173" x="131.0335" y="434.6016">escrever(''Tipo Inconsistente'')</text><ellipse cx="535.5335" cy="498" filter="url(#fowb04cecjcmq)" rx="10" ry="10" style="stroke:#000000;stroke-width:1.0;fill:none;"/><ellipse cx="536.0335" cy="498.5" fill="#000000" rx="6" ry="6" style="stroke:none;stroke-width:1.0;"/><!--MD5=[fa67825f8cbb549f1b17d404f2b146d8]
link start to Informe o tipo de sangue: --><path d="M483.5335,26.0336 C483.5335,35.4082 483.5335,49.7285 483.5335,61.7898 " fill="none" id="start-to-Informe o tipo de sangue: " style="stroke:#A80036;stroke-width:1.0;"/><polygon fill="#A80036" points="483.5335,66.7995,487.5335,57.7995,483.5335,61.7995,479.5335,57.7995,483.5335,66.7995" style="stroke:#A80036;stroke-width:1.0;"/><!--MD5=[b6634a7955a1ed8adcbfa01d2c6c2aca]
link Informe o tipo de sangue:  to leia(tipo)--><path d="M483.5335,101.0187 C483.5335,111.5877 483.5335,125.2879 483.5335,136.7171 " fill="none" id="Informe o tipo de sangue: -to-leia(tipo)" style="stroke:#A80036;stroke-width:1.0;"/><polygon fill="#A80036" points="483.5335,141.7891,487.5335,132.7891,483.5335,136.7891,479.5335,132.7891,483.5335,141.7891" style="stroke:#A80036;stroke-width:1.0;"/><!--MD5=[3314b8ad825627f4b95bd40919b71a62]
link leia(tipo) to #7--><path d="M483.5335,176.3034 C483.5335,187.1588 483.5335,201.0963 483.5335,211.9108 " fill="none" id="leia(tipo)-to-#7" style="stroke:#A80036;stroke-width:1.0;"/><polygon fill="#A80036" points="483.5335,216.9417,487.5335,207.9417,483.5335,211.9417,479.5335,207.9417,483.5335,216.9417" style="stroke:#A80036;stroke-width:1.0;"/><text fill="#000000" font-family="sans-serif" font-size="11" lengthAdjust="spacing" textLength="61" x="406.9022" y="206.5663">(tipo == A)</text><!--MD5=[2c5d20cfc86ca03fbd1c3feaa05ee465]
link #7 to escrever(''Vermelho'')--><path d="M489.9097,235.0084 C495.8897,240.6433 505.1808,249.3985 513.822,257.5412 " fill="none" id="#7-to-escrever(''Vermelho'')" style="stroke:#A80036;stroke-width:1.0;"/><polygon fill="#A80036" points="517.4741,260.9825,513.6671,251.8992,513.8351,257.5535,508.1807,257.7215,517.4741,260.9825" style="stroke:#A80036;stroke-width:1.0;"/><text fill="#000000" font-family="sans-serif" font-size="11" lengthAdjust="spacing" textLength="22" x="504.6342" y="245.5759">true</text><!--MD5=[e5e9fa4f6ba2091c697ace1c5b3575da]
link escrever(''Vermelho'') to REDIRECT_CHECK--><path d="M535.5335,295.1409 C535.5335,327.3422 535.5335,395.8675 535.5335,420.7373 " fill="none" id="escrever(''Vermelho'')-to-REDIRECT_CHECK" style="stroke:#A80036;stroke-width:1.0;"/><polygon fill="#A80036" points="535.5335,425.8357,539.5335,416.8357,535.5335,420.8357,531.5335,416.8357,535.5335,425.8357" style="stroke:#A80036;stroke-width:1.0;"/><!--MD5=[5b3e8854f235f0f2d567fa9852095921]
link #7 to #14--><path d="M473.7256,231.2467 C460.3096,234.906 436.7389,243.5669 426.5335,261 C417.1233,277.0746 421.6343,299.2534 426.21,313.3618 " fill="none" id="#7-to-#14" style="stroke:#A80036;stroke-width:1.0;"/><polygon fill="#A80036" points="427.8731,318.1682,428.7102,308.355,426.2381,313.4431,421.15,310.971,427.8731,318.1682" style="stroke:#A80036;stroke-width:1.0;"/><text fill="#000000" font-family="sans-serif" font-size="11" lengthAdjust="spacing" textLength="25" x="427.5335" y="282.6348">false</text><text fill="#000000" font-family="sans-serif" font-size="11" lengthAdjust="spacing" textLength="59" x="352.7074" y="309.8053">(tipo == B)</text><!--MD5=[ffc82fe6200ebded2861d4c18baa25d3]
link #14 to escrever(''Azul'')--><path d="M434.6184,336.4477 C436.236,341.4014 438.2912,347.6955 440.2838,353.7978 " fill="none" id="#14-to-escrever(''Azul'')" style="stroke:#A80036;stroke-width:1.0;"/><polygon fill="#A80036" points="441.9318,358.845,442.9403,349.0479,440.3796,354.092,435.3355,351.5313,441.9318,358.845" style="stroke:#A80036;stroke-width:1.0;"/><text fill="#000000" font-family="sans-serif" font-size="11" lengthAdjust="spacing" textLength="22" x="439.227" y="345.1338">true</text><!--MD5=[57e955abf3538cfd3a6eeaa34b186e78]
link escrever(''Azul'') to REDIRECT_CHECK--><path d="M475.3772,393.0859 C491.9138,403.2334 511.986,415.5504 524.2547,423.079 " fill="none" id="escrever(''Azul'')-to-REDIRECT_CHECK" style="stroke:#A80036;stroke-width:1.0;"/><polygon fill="#A80036" points="528.7015,425.8076,523.1226,417.6912,524.4398,423.1925,518.9385,424.5097,528.7015,425.8076" style="stroke:#A80036;stroke-width:1.0;"/><!--MD5=[8ffe6b5069a48d75683f003c89ca82b0]
link #14 to #20--><path d="M419.9603,327.7189 C377.089,330.5008 227.5323,341.2931 183.5335,359 C148.3151,373.1733 114.5489,403.7593 98.4112,419.7649 " fill="none" id="#14-to-#20" style="stroke:#A80036;stroke-width:1.0;"/><polygon fill="#A80036" points="94.6981,423.5011,103.8794,419.937,98.2226,419.9546,98.205,414.2978,94.6981,423.5011" style="stroke:#A80036;stroke-width:1.0;"/><text fill="#000000" font-family="sans-serif" font-size="11" lengthAdjust="spacing" textLength="25" x="184.5335" y="380.6348">false</text><text fill="#000000" font-family="sans-serif" font-size="11" lengthAdjust="spacing" textLength="62" x="6" y="409.2129">(tipo == O)</text><!--MD5=[ea39be74c8910b1317d92241519f0800]
link #20 to escrever(''Universal'')--><path d="M95.0607,424.0082 C99.2377,420.4237 104.9111,415.9976 110.5335,413 C153.9405,389.8573 166.9777,385.8795 215.5335,378 C269.8651,369.1832 330.9854,392.2634 368.6293,410.4555 " fill="none" id="#20-to-escrever(''Universal'')" style="stroke:#A80036;stroke-width:1.0;"/><polygon fill="#A80036" points="373.555,412.8729,367.238,405.3167,369.0664,410.6699,363.7132,412.4984,373.555,412.8729" style="stroke:#A80036;stroke-width:1.0;"/><text fill="#000000" font-family="sans-serif" font-size="11" lengthAdjust="spacing" textLength="22" x="216.5335" y="380.6348">true</text><!--MD5=[8d753c59177803250f7fb30581b2e501]
link escrever(''Universal'') to REDIRECT_CHECK--><path d="M475.1506,430 C480.2219,430 485.2931,430 490.3643,430 " fill="none" id="escrever(''Universal'')-to-REDIRECT_CHECK" style="stroke:#A80036;stroke-width:1.0;"/><polygon fill="#A80036" points="495.4355,430,486.4355,426,490.4355,430,486.4355,434,495.4355,430" style="stroke:#A80036;stroke-width:1.0;"/><!--MD5=[e41e28214b4d6f734aaf8809879b53c8]
link #20 to escrever(''Tipo Inconsistente'')--><path d="M100.6272,430 C105.6505,430 110.6738,430 115.6972,430 " fill="none" id="#20-to-escrever(''Tipo Inconsistente'')" style="stroke:#A80036;stroke-width:1.0;"/><polygon fill="#A80036" points="120.7205,430,111.7205,426,115.7205,430,111.7205,434,120.7205,430" style="stroke:#A80036;stroke-width:1.0;"/><!--MD5=[7851784c98f91c3fd7266424b724dec1]
link escrever(''Tipo Inconsistente'') to REDIRECT_CHECK--><path d="M245.3741,412.8059 C268.1348,399.8151 301.6505,383.0574 333.5335,376 C394.7191,362.4563 415.9349,353.7892 474.5335,376 C498.7982,385.1971 519.6141,408.9472 529.4616,421.6669 " fill="none" id="escrever(''Tipo Inconsistente'')-to-REDIRECT_CHECK" style="stroke:#A80036;stroke-width:1.0;"/><polygon fill="#A80036" points="532.5794,425.8066,530.3598,416.2111,529.5712,421.8127,523.9696,421.0242,532.5794,425.8066" style="stroke:#A80036;stroke-width:1.0;"/><!--MD5=[bbc1d3ccf7066af725fa50a76314691b]
link REDIRECT_CHECK to end--><path d="M535.5335,434.0501 C535.5335,443.4519 535.5335,467.155 535.5335,482.9116 " fill="none" id="REDIRECT_CHECK-to-end" style="stroke:#A80036;stroke-width:1.0;"/><polygon fill="#A80036" points="535.5335,487.9183,539.5335,478.9183,535.5335,482.9183,531.5335,478.9183,535.5335,487.9183" style="stroke:#A80036;stroke-width:1.0;"/><!--MD5=[c4bfb7e366711955b974533bd4421344]
@startuml ProvaB2q3
  (*) - -> "Informe o tipo de sangue: " 
  - -> leia(tipo)
  if "(tipo == A)" then
    ->[true] "escrever(''Vermelho'')"
    -> ===REDIRECT_CHECK===  
  else
    - ->[false] if "(tipo == B)" then
      ->[true] "escrever(''Azul'')"
      -> ===REDIRECT_CHECK===  
    else
      - ->[false] if "(tipo == O)" then
        ->[true] "escrever(''Universal'')"
        -> ===REDIRECT_CHECK===  
      else
        -> "escrever(''Tipo Inconsistente'')"
        -> ===REDIRECT_CHECK===  
      endif
    endif
  endif
  - ->(*)
@enduml

PlantUML version 1.2022.0(Tue Jan 11 13:16:42 BRT 2022)
(GPL source distribution)
Java Runtime: OpenJDK Runtime Environment
JVM: OpenJDK 64-Bit Server VM
Default Encoding: UTF-8
Language: en
Country: BR
--></g></svg>