<?xml version="1.0" encoding="UTF-8" standalone="no"?><svg xmlns="http://www.w3.org/2000/svg" xmlns:xlink="http://www.w3.org/1999/xlink" contentStyleType="text/css" height="200px" preserveAspectRatio="none" style="width:410px;height:200px;background:#FFFFFF;" version="1.1" viewBox="0 0 410 200" width="410px" zoomAndPan="magnify"><defs/><g><!--MD5=[4f419e725e6aab7cd24af9800e1f7100]
class CacaPalavras--><a href="java:CacaPalavras" target="_top" title="java:CacaPalavras" xlink:actuate="onRequest" xlink:href="java:CacaPalavras" xlink:show="new" xlink:title="java:CacaPalavras" xlink:type="simple"><g id="elem_CacaPalavras"><rect codeLine="1" fill="#F1F1F1" height="179.9063" id="CacaPalavras" rx="2.5" ry="2.5" style="stroke:#181818;stroke-width:0.5;" width="389" x="7" y="7"/><ellipse cx="152.75" cy="23" fill="#ADD1B2" rx="11" ry="11" style="stroke:#181818;stroke-width:1.0;"/><path d="M155.2231,29.1431 Q154.6421,29.4419 154.0029,29.5913 Q153.3638,29.7407 152.6582,29.7407 Q150.1514,29.7407 148.8315,28.0889 Q147.5117,26.437 147.5117,23.3159 Q147.5117,20.1865 148.8315,18.5347 Q150.1514,16.8828 152.6582,16.8828 Q153.3638,16.8828 154.0112,17.0322 Q154.6587,17.1816 155.2231,17.4805 L155.2231,20.2031 Q154.5923,19.6221 153.9988,19.3523 Q153.4053,19.0825 152.7744,19.0825 Q151.4297,19.0825 150.7449,20.1492 Q150.0601,21.2158 150.0601,23.3159 Q150.0601,25.4077 150.7449,26.4744 Q151.4297,27.541 152.7744,27.541 Q153.4053,27.541 153.9988,27.2712 Q154.5923,27.0015 155.2231,26.4204 Z " fill="#000000"/><text fill="#000000" font-family="sans-serif" font-size="14" lengthAdjust="spacing" textLength="89" x="173.25" y="28.291">CacaPalavras</text><line style="stroke:#181818;stroke-width:0.5;" x1="8" x2="395" y1="39" y2="39"/><line style="stroke:#181818;stroke-width:0.5;" x1="8" x2="395" y1="47" y2="47"/><rect fill="#F24D5C" height="6" style="stroke:#C82930;stroke-width:1.0;" width="6" x="15" y="57.7441"/><text fill="#000000" font-family="sans-serif" font-size="14" lengthAdjust="spacing" textLength="99" x="27" y="64.5352">CacaPalavras()</text><rect fill="#F24D5C" height="6" style="stroke:#C82930;stroke-width:1.0;" width="6" x="15" y="74.2324"/><text fill="#000000" font-family="sans-serif" font-size="14" lengthAdjust="spacing" textLength="275" x="27" y="81.0234">void palavrasEntrada(String[][] palavras)</text><rect fill="#F24D5C" height="6" style="stroke:#C82930;stroke-width:1.0;" width="6" x="15" y="90.7207"/><text fill="#000000" font-family="sans-serif" font-size="14" lengthAdjust="spacing" textLength="281" x="27" y="97.5117">void palavrasImprimir(String[][] palavras)</text><rect fill="#F24D5C" height="6" style="stroke:#C82930;stroke-width:1.0;" width="6" x="15" y="107.209"/><text fill="#000000" font-family="sans-serif" font-size="14" lengthAdjust="spacing" textLength="291" x="27" y="114">void palavrasRespostas(String[][] palavras)</text><rect fill="#F24D5C" height="6" style="stroke:#C82930;stroke-width:1.0;" width="6" x="15" y="123.6973"/><text fill="#000000" font-family="sans-serif" font-size="14" lengthAdjust="spacing" textLength="226" x="27" y="130.4883">void mapaEntrada(char[][] mapa)</text><rect fill="#F24D5C" height="6" style="stroke:#C82930;stroke-width:1.0;" width="6" x="15" y="140.1855"/><text fill="#000000" font-family="sans-serif" font-size="14" lengthAdjust="spacing" textLength="232" x="27" y="146.9766">void mapaImprimir(char[][] mapa)</text><rect fill="#F24D5C" height="6" style="stroke:#C82930;stroke-width:1.0;" width="6" x="15" y="156.6738"/><text fill="#000000" font-family="sans-serif" font-size="14" lengthAdjust="spacing" textLength="363" x="27" y="163.4648">void mapaPesquisa(String[][] palavras, char[][] mapa)</text><ellipse cx="18" cy="176.1621" fill="#84BE84" rx="3" ry="3" style="stroke:#038048;stroke-width:1.0;"/><text fill="#000000" font-family="sans-serif" font-size="14" lengthAdjust="spacing" text-decoration="underline" textLength="162" x="27" y="179.9531">void main(String[] args)</text></g></a><!--MD5=[e8f3f8c3f617fc2ab35901d1df0c8302]
@startuml CacaPalavras
class CacaPalavras [[java:CacaPalavras]] {
	-CacaPalavras()
	-void palavrasEntrada(String[][] palavras)
	-void palavrasImprimir(String[][] palavras)
	-void palavrasRespostas(String[][] palavras)
	-void mapaEntrada(char[][] mapa)
	-void mapaImprimir(char[][] mapa)
	-void mapaPesquisa(String[][] palavras, char[][] mapa)
	+{static}void main(String[] args)
}

@enduml

PlantUML version 1.2022.7(Mon Aug 22 14:01:30 BRT 2022)
(GPL source distribution)
Java Runtime: OpenJDK Runtime Environment
JVM: OpenJDK 64-Bit Server VM
Default Encoding: UTF-8
Language: en
Country: BR
--></g></svg>